<?xml version="1.0" encoding="UTF-8" ?>
<!DOCTYPE svg PUBLIC "-//W3C//DTD SVG 1.1//EN" "http://www.w3.org/Graphics/SVG/1.1/DTD/svg11.dtd">
<svg width="527pt" height="107pt" viewBox="0 0 2373 479" version="1.1" xmlns="http://www.w3.org/2000/svg">
<g id="#ffffffff">
</g>
<g id="#000000ff">
<path fill="#000000" opacity="1.00" d=" M 679.09 10.75 C 685.69 10.14 692.32 10.28 698.95 10.27 C 831.79 10.26 964.64 10.28 1097.49 10.26 C 1097.53 52.39 1097.48 94.52 1097.51 136.65 C 811.42 136.63 525.34 136.58 239.25 136.59 C 266.88 94.69 294.49 52.77 322.13 10.86 C 403.17 10.87 484.21 10.86 565.26 10.87 C 565.36 43.18 565.07 75.49 565.40 107.79 C 572.66 77.91 591.40 51.13 616.56 33.55 C 634.90 20.60 656.72 12.64 679.09 10.75 Z" />
<path fill="#000000" opacity="1.00" d=" M 1755.90 11.22 C 1765.54 9.96 1775.28 10.32 1784.98 10.27 C 1925.48 10.28 2065.98 10.24 2206.47 10.29 C 2206.45 52.41 2206.46 94.53 2206.47 136.65 C 2018.58 136.68 1830.70 136.61 1642.81 136.55 C 1643.35 102.56 1658.16 69.17 1682.88 45.87 C 1702.68 26.90 1728.66 14.47 1755.90 11.22 Z" />
<path fill="#000000" opacity="1.00" d=" M 1117.69 10.87 C 1160.02 10.87 1202.35 10.86 1244.68 10.87 C 1244.68 52.78 1244.68 94.69 1244.68 136.60 C 1202.35 136.59 1160.01 136.62 1117.68 136.58 C 1117.69 94.68 1117.67 52.77 1117.69 10.87 Z" />
<path fill="#000000" opacity="1.00" d=" M 1514.49 136.60 C 1514.52 94.68 1514.42 52.76 1514.53 10.85 C 1556.84 10.90 1599.16 10.85 1641.47 10.87 C 1641.48 52.78 1641.47 94.68 1641.48 136.59 C 1599.15 136.61 1556.82 136.60 1514.49 136.60 Z" />
<path fill="#000000" opacity="1.00" d=" M 2285.53 15.77 C 2303.04 11.80 2322.25 17.43 2335.21 29.76 C 2347.78 42.09 2353.94 60.72 2350.95 78.11 C 2348.24 94.16 2338.38 109.18 2323.84 116.85 C 2307.52 126.13 2286.47 126.07 2270.17 116.78 C 2255.03 108.74 2244.89 92.77 2242.78 75.92 C 2240.89 61.71 2245.18 47.00 2253.73 35.58 C 2261.41 25.35 2273.12 18.53 2285.53 15.77 M 2287.47 24.60 C 2273.28 27.63 2260.65 37.56 2255.20 51.14 C 2246.72 69.71 2253.05 93.48 2269.46 105.54 C 2282.69 115.55 2301.40 117.66 2316.40 110.43 C 2329.84 104.54 2339.37 91.44 2341.89 77.11 C 2344.46 63.11 2339.87 48.14 2330.23 37.74 C 2319.48 26.50 2302.71 21.14 2287.47 24.60 Z" />
<path fill="#000000" opacity="1.00" d=" M 2273.09 40.60 C 2284.00 40.90 2295.04 39.82 2305.87 41.56 C 2313.81 42.80 2319.65 51.09 2318.23 58.99 C 2317.17 67.01 2309.49 72.76 2301.67 73.12 C 2306.36 74.87 2309.28 79.10 2312.07 83.00 C 2315.74 88.34 2319.03 93.92 2322.49 99.40 C 2318.61 99.40 2314.75 99.40 2310.90 99.40 C 2306.55 92.08 2302.97 84.14 2297.19 77.79 C 2293.53 73.63 2287.51 74.47 2282.57 74.41 C 2282.56 82.74 2282.58 91.08 2282.56 99.41 C 2279.38 99.40 2276.23 99.40 2273.09 99.40 C 2273.08 79.80 2273.08 60.20 2273.09 40.60 M 2282.57 48.54 C 2282.56 54.47 2282.56 60.40 2282.58 66.33 C 2288.75 66.18 2295.02 66.80 2301.14 65.62 C 2304.51 65.05 2307.64 62.54 2308.21 59.04 C 2309.20 54.75 2306.19 50.23 2301.95 49.29 C 2295.57 48.05 2289.02 48.70 2282.57 48.54 Z" />
<path fill="#000000" opacity="1.00" d=" M 1117.68 142.00 C 1160.02 144.16 1202.36 146.31 1244.69 148.55 C 1244.71 200.38 1244.70 252.22 1244.69 304.05 C 1244.41 311.28 1245.40 318.70 1248.87 325.14 C 1255.05 337.32 1268.36 345.40 1282.03 345.19 C 1342.34 345.21 1402.66 345.20 1462.97 345.20 C 1469.71 345.03 1476.50 345.62 1483.20 344.72 C 1495.42 342.88 1506.35 334.43 1511.28 323.11 C 1513.72 317.74 1514.62 311.80 1514.50 305.94 C 1514.49 258.12 1514.51 210.30 1514.49 162.47 C 1556.83 164.59 1599.15 166.81 1641.48 169.00 C 1641.50 225.78 1641.47 282.56 1641.50 339.34 C 1781.67 339.33 1921.85 339.34 2062.03 339.33 C 2067.00 339.33 2072.20 339.71 2076.88 337.63 C 2085.08 334.36 2090.80 325.81 2090.65 316.96 C 2090.66 308.14 2084.85 299.68 2076.61 296.53 C 2072.94 294.95 2068.90 294.95 2065.01 294.72 C 1972.04 288.95 1879.06 283.32 1786.08 277.60 C 1751.05 276.56 1715.96 264.48 1688.84 242.02 C 1666.61 223.62 1650.67 197.60 1645.13 169.21 C 1792.43 176.64 1939.72 184.27 2087.07 190.53 C 2119.08 192.70 2149.92 207.63 2171.71 231.14 C 2189.44 250.04 2201.32 274.37 2205.05 300.02 C 2207.05 312.92 2206.38 326.00 2206.43 339.00 C 2206.09 370.82 2193.18 402.19 2171.28 425.23 C 2147.68 450.47 2113.62 465.60 2079.02 465.72 C 1932.49 465.76 1785.95 465.71 1639.41 465.75 C 1639.33 431.70 1639.49 397.66 1639.33 363.62 C 1633.21 395.59 1614.23 424.84 1587.43 443.34 C 1565.86 458.53 1539.36 466.40 1513.00 465.74 C 1428.32 465.73 1343.64 465.73 1258.97 465.73 C 1246.95 465.66 1234.84 466.23 1222.95 464.13 C 1192.17 459.23 1163.67 442.15 1144.52 417.62 C 1131.74 401.39 1123.05 381.97 1119.54 361.62 C 1113.08 394.81 1092.93 424.98 1064.85 443.79 C 1049.33 454.29 1031.48 461.35 1012.95 464.20 C 1003.40 465.79 993.71 465.82 984.06 465.73 C 800.67 465.73 617.29 465.73 433.90 465.73 C 433.88 362.44 433.89 259.14 433.89 155.85 C 620.26 167.93 806.61 180.23 992.97 192.37 C 1021.55 192.35 1050.14 201.71 1072.76 219.27 C 1094.57 235.98 1110.79 259.98 1117.69 286.61 C 1117.67 238.41 1117.69 190.20 1117.68 142.00 M 565.28 339.34 C 704.84 339.31 844.41 339.35 983.98 339.32 C 994.34 339.46 1003.97 331.35 1005.69 321.15 C 1007.61 311.67 1002.39 301.42 993.70 297.26 C 988.56 294.51 982.58 295.00 976.96 294.51 C 881.63 288.52 786.28 282.69 690.94 276.75 C 663.85 273.36 637.22 263.97 615.02 247.87 C 590.89 230.53 572.49 204.83 565.39 175.84 C 565.11 230.34 565.32 284.84 565.28 339.34 Z" />
<path fill="#000000" opacity="1.00" d=" M 22.30 465.72 C 92.93 358.59 163.55 251.45 234.17 144.30 C 282.86 147.05 331.54 149.87 380.23 152.72 C 313.34 257.08 246.35 361.37 179.44 465.72 C 127.06 465.75 74.68 465.74 22.30 465.72 Z" />
</g>
</svg>
