<svg width="100" height="100" viewBox="0 0 100 100" fill="none" xmlns="http://www.w3.org/2000/svg">
<g clip-path="url(#clip0_740_32)">
<path d="M16.6667 100C12.1528 100 8.24653 98.3507 4.94792 95.0521C1.64931 91.7535 0 87.8472 0 83.3333V50C0 41.3194 2.25694 32.9861 6.77083 25C11.2847 17.1875 17.4479 11.1111 25.2604 6.77083C32.8993 2.25694 41.1458 0 50 0C59.0278 0 67.3611 2.25694 75 6.77083C82.8125 11.2847 88.9757 17.4479 93.4896 25.2604C97.8299 32.8993 100 41.1458 100 50V83.3333C100 87.8472 98.3507 91.7535 95.0521 95.0521C91.7535 98.3507 87.8472 100 83.3333 100H66.6667V58.3333H87.5V50C87.5 43.4028 85.8507 37.1528 82.5521 31.25C79.0799 25.5208 74.4792 21.0069 68.75 17.7083C63.0208 14.2361 56.7708 12.5 50 12.5C43.0556 12.5 36.8056 14.1493 31.25 17.4479C25.5208 20.9201 21.0069 25.5208 17.7083 31.25C14.2361 36.9792 12.5 43.2292 12.5 50V58.3333H33.3333V100H16.6667Z" fill="white"/>
</g>
<defs>
<clipPath id="clip0_740_32">
<rect width="100" height="100" fill="white"/>
</clipPath>
</defs>
</svg>
