<svg width="100" height="100" viewBox="0 0 100 100" fill="none" xmlns="http://www.w3.org/2000/svg">
<path d="M54.9993 8.33398H44.9993V11.6674H54.9993V8.33398Z" fill="white"/>
<path d="M76.6666 96.6666H55V76.6666C56.8382 76.6666 58.3333 75.1717 58.3333 73.3332V66.6666H65C66.8382 66.6666 68.3334 65.1717 68.3334 63.3332V28.3332C68.3334 26.4949 66.8384 24.9998 65 24.9998H63.3334V5C63.3334 2.24336 61.09 0 58.3333 0H41.6667C38.9083 0 36.6667 2.24336 36.6667 5V25H35C33.1599 25 31.6666 26.4949 31.6666 28.3334V63.3334C31.6666 65.1717 33.1599 66.6668 35 66.6668H41.6666V73.3334C41.6666 75.1717 43.1599 76.6668 45 76.6668V96.6668H23.3334C22.4117 96.6668 21.6667 97.4117 21.6667 98.3334C21.6667 99.2551 22.4117 100 23.3334 100H46.6667H53.3333H76.6667C77.5867 100 78.3333 99.2551 78.3333 98.3334C78.3333 97.4117 77.5867 96.6666 76.6666 96.6666ZM43.3334 15C42.4117 15 41.6667 14.2551 41.6667 13.3334V6.6666C41.6667 5.74492 42.4117 5 43.3334 5H56.6668C57.5867 5 58.3333 5.74492 58.3333 6.6666V13.3332C58.3333 14.2549 57.5867 14.9998 56.6668 14.9998H43.3334V15ZM46.6666 73.3334H45V66.6668H55L55.0017 73.3334H53.3333H46.6666Z" fill="white"/>
</svg>
