<svg width="100" height="100" viewBox="0 0 100 100" fill="none" xmlns="http://www.w3.org/2000/svg">
<path d="M97.8344 35.1862H90.5002C89.9416 35.1862 89.4048 35.402 89.0016 35.7883L87.436 37.2881C84.797 31.1819 81.0111 25.1435 75.8975 18.8921C73.1332 15.5143 69.0455 13.5772 64.6814 13.5772H35.3184C30.9538 13.5772 26.8659 15.5145 24.1032 18.8923C18.8282 25.3404 15.1176 31.2333 12.5411 37.2666L10.9987 35.7883C10.5955 35.402 10.0584 35.1862 9.49978 35.1862H2.1661C0.969687 35.1862 0 36.1559 0 37.3523V42.3665C0 43.5099 0.88886 44.456 2.02993 44.5282L9.5681 45.003C8.42912 48.3313 7.53979 53.2908 7.53979 60.2852C7.53979 66.3542 8.75196 70.3429 10.8616 72.9252V84.6089C10.8616 85.6108 11.6738 86.4228 12.6756 86.4228H21.0198C22.0221 86.4228 22.8345 85.6108 22.8345 84.6089V77.3535H77.1657V84.6089C77.1657 85.6108 77.9781 86.4228 78.98 86.4228H87.3241C88.326 86.4228 89.1384 85.6108 89.1384 84.6089V72.9252C91.2476 70.3429 92.4604 66.3542 92.4604 60.2852C92.4604 53.2908 91.5711 48.3313 90.4321 45.003L97.9703 44.5282C99.1111 44.456 100 43.5099 100 42.3665V37.3523C100 36.1559 99.0308 35.1862 97.8344 35.1862ZM30.294 23.9566C31.5321 22.4434 33.3635 21.5751 35.3184 21.5751H64.6814C66.6362 21.5751 68.4684 22.4434 69.7063 23.9566C73.2837 28.3298 76.1089 32.515 78.2924 36.6839L21.6576 36.6945C23.7933 32.6183 26.6345 28.4296 30.294 23.9566ZM24.1222 68.4809C19.969 68.4809 16.6026 67.1245 16.6026 63.8337C16.6026 60.5432 17.824 57.875 21.9769 57.875C26.1299 57.875 31.6414 60.5432 31.6414 63.8337C31.6414 67.1242 28.2747 68.4809 24.1222 68.4809ZM57.8824 67.7952H42.118C39.7414 67.7952 37.8081 65.8618 37.8081 63.4854C37.8081 62.8189 38.3486 62.2783 39.0156 62.2783H60.9853C61.6521 62.2783 62.1922 62.8189 62.1922 63.4854C62.1922 65.862 60.2588 67.7952 57.8824 67.7952ZM75.878 68.4809C71.7251 68.4809 68.3584 67.1245 68.3584 63.8337C68.3584 60.5432 73.8706 57.875 78.0228 57.875C82.1758 57.875 83.3974 60.5432 83.3974 63.8337C83.3974 67.1242 80.0312 68.4809 75.878 68.4809Z" fill="white"/>
</svg>
