<svg width="100" height="100" viewBox="0 0 100 100" fill="none" xmlns="http://www.w3.org/2000/svg">
<path d="M90.8277 27.0716C91.5886 27.0716 92.2054 26.7644 92.2054 26.3855C92.2054 26.0065 91.5886 25.6994 90.8277 25.6994C90.0668 25.6994 89.45 26.0065 89.45 26.3855C89.45 26.7644 90.0668 27.0716 90.8277 27.0716Z" fill="white"/>
<path d="M97.2473 15.6621H61.5344C60.0226 15.6621 58.7854 16.8993 58.7854 18.4084V28.348H64.2844V20.7268H94.5019V28.9648H68.5781V36.5176H94.501V37.8926H68.5781V44.7592H94.501V46.1306H68.5781V77.3243H58.7918V81.5852C58.7918 83.0934 60.029 84.3315 61.5381 84.3315H97.2537C98.7619 84.3315 100 83.0943 100 81.5852V18.4048C99.9936 16.8993 98.7564 15.6621 97.2473 15.6621ZM79.3863 66.1731C77.1135 66.1731 75.265 64.3319 75.265 62.0518C75.265 59.779 77.1099 57.9305 79.3863 57.9305C81.6618 57.9305 83.5103 59.7717 83.5103 62.0518C83.5103 64.3319 81.6618 66.1731 79.3863 66.1731Z" fill="white"/>
<path d="M65.3063 31.6162H0V74.0653H65.3063V31.6162Z" fill="white"/>
<path d="M22.8572 77.8079L16.3263 84.3379H48.9799L42.449 77.8079H22.8572Z" fill="white"/>
</svg>
