<svg width="100" height="100" viewBox="0 0 100 100" fill="none" xmlns="http://www.w3.org/2000/svg">
<g clip-path="url(#clip0_740_25)">
<path d="M99.7298 43.8675L86.9113 13.5331C86.3761 12.2664 85.1341 11.4429 83.7589 11.4429H16.2405C14.8653 11.4429 13.6238 12.2664 13.0881 13.5331L0.269606 43.8675C-0.177085 44.9237 -0.0639297 46.1342 0.569834 47.0901C1.20405 48.0465 2.27493 48.6209 3.422 48.6209H7.58959V85.1346C7.58959 87.025 9.12176 88.5567 11.0116 88.5567H88.9883C90.8781 88.5567 92.4103 87.025 92.4103 85.1346V48.6209H96.5774C97.7245 48.6209 98.7954 48.046 99.4296 47.0901C100.064 46.1342 100.177 44.9237 99.7298 43.8675ZM69.8252 76.0972V54.615H81.6413V76.0972H69.8252ZM19.1082 75.9644V54.7473H30.8399V75.9644H19.1082ZM37.6845 54.7473H49.4166V75.9644H37.6845V54.7473Z" fill="white"/>
</g>
<defs>
<clipPath id="clip0_740_25">
<rect width="100" height="100" fill="white"/>
</clipPath>
</defs>
</svg>
