<svg width="100" height="100" viewBox="0 0 100 100" fill="none" xmlns="http://www.w3.org/2000/svg">
<g clip-path="url(#clip0_740_23)">
<path d="M14.2806 71.4254C6.4082 71.4254 0 77.8336 0 85.706C0 93.5896 6.4082 99.9978 14.2806 99.9978C22.1642 99.9978 28.5724 93.5896 28.5724 85.706C28.5724 77.8336 22.1642 71.4254 14.2806 71.4254V71.4254ZM49.9933 71.4254C42.1209 71.4254 35.7127 77.8336 35.7127 85.706C35.7127 93.5896 42.1209 99.9978 49.9933 99.9978C57.8769 99.9978 64.2851 93.5896 64.2851 85.706C64.2851 77.8336 57.8769 71.4254 49.9933 71.4254V71.4254ZM85.706 71.4254C77.8336 71.4254 71.4254 77.8336 71.4254 85.706C71.4254 93.5896 77.8336 99.9978 85.706 99.9978C93.5873 99.9978 99.9955 93.5896 99.9955 85.706C99.9978 77.8336 93.5896 71.4254 85.706 71.4254V71.4254ZM14.2806 35.7127C6.4082 35.7127 0 42.1209 0 49.9933C0 57.8769 6.4082 64.2851 14.2806 64.2851C22.1642 64.2851 28.5724 57.8769 28.5724 49.9933C28.5724 42.1209 22.1642 35.7127 14.2806 35.7127V35.7127ZM49.9933 35.7127C42.1209 35.7127 35.7127 42.1209 35.7127 49.9933C35.7127 57.8769 42.1209 64.2851 49.9933 64.2851C57.8769 64.2851 64.2851 57.8769 64.2851 49.9933C64.2851 42.1209 57.8769 35.7127 49.9933 35.7127ZM85.706 35.7127C77.8336 35.7127 71.4254 42.1209 71.4254 49.9933C71.4254 57.8769 77.8336 64.2851 85.706 64.2851C93.5873 64.2851 99.9955 57.8769 99.9955 49.9933C99.9978 42.1209 93.5896 35.7127 85.706 35.7127V35.7127ZM14.2806 0C6.4082 0 0 6.4082 0 14.2806C0 22.1642 6.4082 28.5724 14.2806 28.5724C22.1642 28.5724 28.5724 22.1642 28.5724 14.2806C28.5724 6.4082 22.1642 0 14.2806 0V0ZM49.9933 0C42.1209 0 35.7127 6.4082 35.7127 14.2806C35.7127 22.1642 42.1209 28.5724 49.9933 28.5724C57.8769 28.5724 64.2851 22.1642 64.2851 14.2806C64.2851 6.4082 57.8769 0 49.9933 0V0ZM85.706 28.5724C93.5873 28.5724 99.9955 22.1642 99.9955 14.2806C99.9978 6.4082 93.5896 0 85.706 0C77.8336 0 71.4254 6.4082 71.4254 14.2806C71.4254 22.1642 77.8336 28.5724 85.706 28.5724V28.5724Z" fill="white"/>
</g>
<defs>
<clipPath id="clip0_740_23">
<rect width="100" height="100" fill="white"/>
</clipPath>
</defs>
</svg>
