<svg width="100" height="100" viewBox="0 0 100 100" fill="none" xmlns="http://www.w3.org/2000/svg">
<g clip-path="url(#clip0_740_27)">
<path d="M93.1885 66.5028C88.1088 62.4206 83.4491 60.4361 78.943 60.4361C72.4245 60.4361 67.7311 64.5827 63.4819 68.8306C62.9932 69.3196 62.4015 69.5475 61.6202 69.5475C58.0395 69.5479 51.7402 65.0637 42.8975 56.2199C32.4945 45.8162 28.5612 39.1991 31.206 36.5533C38.3757 29.386 40.614 22.201 29.6367 8.54899C25.7069 3.65793 21.8621 1.28079 17.8825 1.28079C12.5157 1.28079 8.43592 5.57078 4.83645 9.35611C4.21414 10.0104 3.6263 10.6286 3.04994 11.2049C-1.01835 15.2729 -1.01626 24.1459 3.05585 34.9415C7.52369 46.7865 16.3452 59.6718 27.8958 71.2241C36.8283 80.1559 46.5474 87.3743 56.0031 92.2209C64.2583 96.4524 72.2658 98.7195 78.5504 98.7195C78.5511 98.7195 78.5518 98.7195 78.5529 98.7195C82.4858 98.7195 85.6804 97.8616 87.7903 96.1169C92.0761 92.5734 100.053 86.01 100 78.2138C99.9708 74.0324 97.6796 70.1138 93.1885 66.5028Z" fill="white"/>
</g>
<defs>
<clipPath id="clip0_740_27">
<rect width="100" height="100" fill="white"/>
</clipPath>
</defs>
</svg>
