<svg width="100" height="100" viewBox="0 0 100 100" fill="none" xmlns="http://www.w3.org/2000/svg">
<path d="M89.2372 42.3294H86.2996V38.2008C86.2996 31.5381 80.8388 26.1634 74.1783 26.1634H54.3843V16.2609C56.9868 14.7545 58.7357 11.9404 58.7357 8.71157C58.7357 3.89925 54.8298 0 50.0219 0C45.2074 0 41.2817 3.90146 41.2817 8.71157C41.2817 11.9404 43.013 14.7545 45.6154 16.2609V26.1634H25.8523C19.1896 26.1634 13.8369 31.5381 13.8369 38.2008V42.3294H10.7912C7.03971 42.3294 3.97412 45.4325 3.97412 49.184V63.8569C3.97412 67.6062 7.03971 70.6828 10.7912 70.6828H13.8369V74.8445C13.8369 81.5072 19.1896 86.8466 25.8523 86.8466H31.5071V93.2072C31.5071 96.9587 34.5793 100 38.3308 100H61.6999C65.4513 100 68.4927 96.9587 68.4927 93.2072V86.8488H74.1783C80.841 86.8488 86.2996 81.5072 86.2996 74.8445V70.685H89.2372C92.9887 70.685 96.0256 67.6106 96.0256 63.8591V49.1862C96.0256 45.4347 92.9931 42.3294 89.2372 42.3294ZM23.5564 46.9124C23.5564 42.5036 27.1315 38.933 31.538 38.933C35.9445 38.933 39.5151 42.5036 39.5151 46.9124C39.5151 51.3211 35.9445 54.8917 31.538 54.8917C27.1315 54.8917 23.5564 51.3211 23.5564 46.9124ZM60.8838 76.0288H39.1468C35.5453 76.0288 32.6253 73.1265 32.6253 69.5205C32.6253 65.919 35.5453 63.0166 39.1468 63.0166H60.886C64.4876 63.0166 67.4076 65.919 67.4076 69.5205C67.4076 73.1221 64.4854 76.0288 60.8838 76.0288ZM68.4927 54.8917C64.0862 54.8917 60.5133 51.3211 60.5133 46.9124C60.5133 42.5036 64.0862 38.933 68.4927 38.933C72.9014 38.933 76.4742 42.5036 76.4742 46.9124C76.4742 51.3211 72.9014 54.8917 68.4927 54.8917Z" fill="white"/>
</svg>
